<?xml version="1.0" standalone="no"?>
<!DOCTYPE svg PUBLIC "-//W3C//DTD SVG 20010904//EN"
 "http://www.w3.org/TR/2001/REC-SVG-20010904/DTD/svg10.dtd">
<svg version="1.0" xmlns="http://www.w3.org/2000/svg"
 width="512.000000pt" height="512.000000pt" viewBox="0 0 512.000000 512.000000"
 preserveAspectRatio="xMidYMid meet">
<metadata>
Created by potrace 1.14, written by Peter Selinger 2001-2017
</metadata>
<g transform="translate(0.000000,512.000000) scale(0.100000,-0.100000)"
fill="#000000" stroke="none">
<path d="M0 2560 l0 -2560 2560 0 2560 0 0 2560 0 2560 -2560 0 -2560 0 0
-2560z m3017 1698 c7 -8 13 -228 16 -578 6 -573 14 -801 42 -1170 39 -508 111
-868 190 -947 41 -41 66 -42 156 -2 47 20 82 29 107 27 55 -5 54 -30 -5 -87
-89 -86 -332 -190 -443 -191 -81 0 -155 50 -189 129 -43 100 -95 357 -116 574
l-7 67 -533 0 -533 0 -93 -132 c-308 -442 -513 -658 -667 -704 -88 -27 -202
11 -298 99 -120 109 -135 237 -50 423 52 113 82 123 117 37 43 -107 150 -188
263 -200 81 -8 130 19 257 146 395 396 1015 1379 1416 2247 33 72 54 102 98
142 106 97 243 157 272 120z m1373 -2012 c76 -39 145 -109 183 -186 29 -59 32
-73 32 -160 0 -82 -4 -103 -27 -152 -35 -76 -109 -153 -183 -192 -57 -29 -66
-31 -170 -31 -104 0 -113 2 -170 31 -74 39 -148 116 -183 192 -23 49 -27 70
-27 152 0 82 4 103 27 152 32 68 106 151 163 181 72 39 107 47 205 44 82 -2
103 -6 150 -31z"/>
<path d="M2573 3568 c-204 -406 -434 -811 -679 -1194 -46 -73 -84 -134 -84
-136 0 -3 28 9 62 26 l62 31 409 3 408 3 -6 42 c-18 136 -53 905 -58 1290 l-2
159 -112 -224z"/>
</g>
</svg>
